HIERARCHY
ROOT hip
{
  OFFSET 72.2049 98.7989 44.7352
  CHANNELS 6 Xposition Yposition Zposition Zrotation Xrotation Yrotation
  JOINT abdomen
  {
    OFFSET 0 20.6881 -0.73152
    CHANNELS 3 Zrotation Xrotation Yrotation
    JOINT chest
    {
      OFFSET 0 11.7043 -0.48768
      CHANNELS 3 Zrotation Xrotation Yrotation
      JOINT neck
      {
        OFFSET 0 22.1894 -2.19456
        CHANNELS 3 Zrotation Xrotation Yrotation
        JOINT head
        {
          OFFSET -0.24384 7.07133 1.2192
          CHANNELS 3 Zrotation Xrotation Yrotation
          JOINT leftEye
          {
            OFFSET 4.14528 8.04674 8.04672
            CHANNELS 3 Zrotation Xrotation Yrotation
            End Site
            {
              OFFSET 1 0 0
            }
          }
          JOINT rightEye
          {
            OFFSET -3.6576 8.04674 8.04672
            CHANNELS 3 Zrotation Xrotation Yrotation
            End Site
            {
              OFFSET 1 0 0
            }
          }
        }
      }
      JOINT rCollar
      {
        OFFSET -2.68224 19.2634 -4.8768
        CHANNELS 3 Zrotation Xrotation Yrotation
        JOINT rShldr
        {
          OFFSET -8.77824 -1.95073 1.46304
          CHANNELS 3 Zrotation Xrotation Yrotation
          JOINT rForeArm
          {
            OFFSET -28.1742 -1.7115 0.48768
            CHANNELS 3 Zrotation Xrotation Yrotation
            JOINT rHand
            {
              OFFSET -22.5879 0.773209 7.07136
              CHANNELS 3 Zrotation Xrotation Yrotation
              JOINT rThumb1
              {
                OFFSET -1.2192 -0.487915 3.41376
                CHANNELS 3 Zrotation Xrotation Yrotation
                JOINT rThumb2
                {
                  OFFSET -3.37035 -0.52449 3.41376
                  CHANNELS 3 Zrotation Xrotation Yrotation
                  End Site
                  {
                    OFFSET -1.78271 -1.18214 1.43049
                  }
                }
              }
              JOINT rIndex1
              {
                OFFSET -7.75947 0.938293 5.60832
                CHANNELS 3 Zrotation Xrotation Yrotation
                JOINT rIndex2
                {
                  OFFSET -2.54057 -0.884171 1.56538
                  CHANNELS 3 Zrotation Xrotation Yrotation
                  End Site
                  {
                    OFFSET -1.62519 -0.234802 1.16502
                  }
                }
              }
              JOINT rMid1
              {
                OFFSET -8.24714 1.18213 3.41376
                CHANNELS 3 Zrotation Xrotation Yrotation
                JOINT rMid2
                {
                  OFFSET -3.10165 -0.590103 1.0647
                  CHANNELS 3 Zrotation Xrotation Yrotation
                  End Site
                  {
                    OFFSET -2.48547 -0.328903 0.83742
                  }
                }
              }
              JOINT rRing1
              {
                OFFSET -8.82822 0.546677 1.51678
                CHANNELS 3 Zrotation Xrotation Yrotation
                JOINT rRing2
                {
                  OFFSET -2.60934 -0.819778 -0.0198488
                  CHANNELS 3 Zrotation Xrotation Yrotation
                  End Site
                  {
                    OFFSET -2.33842 -0.294052 0.168128
                  }
                }
              }
              JOINT rPinky1
              {
                OFFSET -8.27202 -0.0477905 -0.4584
                CHANNELS 3 Zrotation Xrotation Yrotation
                JOINT rPinky2
                {
                  OFFSET -1.82734 -0.647385 -0.700984
                  CHANNELS 3 Zrotation Xrotation Yrotation
                  End Site
                  {
                    OFFSET -1.69225 -0.51767 -0.607171
                  }
                }
              }
            }
          }
        }
      }
      JOINT lCollar
      {
        OFFSET 2.68224 19.2634 -4.8768
        CHANNELS 3 Zrotation Xrotation Yrotation
        JOINT lShldr
        {
          OFFSET 8.77824 -1.95073 1.46304
          CHANNELS 3 Zrotation Xrotation Yrotation
          JOINT lForeArm
          {
            OFFSET 28.1742 -1.7115 0.48768
            CHANNELS 3 Zrotation Xrotation Yrotation
            JOINT lHand
            {
              OFFSET 22.5879 0.773209 7.07136
              CHANNELS 3 Zrotation Xrotation Yrotation
              JOINT lThumb1
              {
                OFFSET 1.2192 -0.487915 3.41376
                CHANNELS 3 Zrotation Xrotation Yrotation
                JOINT lThumb2
                {
                  OFFSET 3.37035 -0.52449 3.41376
                  CHANNELS 3 Zrotation Xrotation Yrotation
                  End Site
                  {
                    OFFSET 1.78271 -1.18214 1.43049
                  }
                }
              }
              JOINT lIndex1
              {
                OFFSET 7.75947 0.938293 5.60832
                CHANNELS 3 Zrotation Xrotation Yrotation
                JOINT lIndex2
                {
                  OFFSET 2.54057 -0.884171 1.56538
                  CHANNELS 3 Zrotation Xrotation Yrotation
                  End Site
                  {
                    OFFSET 1.62519 -0.234802 1.16502
                  }
                }
              }
              JOINT lMid1
              {
                OFFSET 8.24714 1.18213 3.41376
                CHANNELS 3 Zrotation Xrotation Yrotation
                JOINT lMid2
                {
                  OFFSET 3.10165 -0.590103 1.0647
                  CHANNELS 3 Zrotation Xrotation Yrotation
                  End Site
                  {
                    OFFSET 2.48547 -0.328903 0.83742
                  }
                }
              }
              JOINT lRing1
              {
                OFFSET 8.82822 0.546677 1.51678
                CHANNELS 3 Zrotation Xrotation Yrotation
                JOINT lRing2
                {
                  OFFSET 2.60934 -0.819778 -0.0198488
                  CHANNELS 3 Zrotation Xrotation Yrotation
                  End Site
                  {
                    OFFSET 2.33842 -0.294052 0.168128
                  }
                }
              }
              JOINT lPinky1
              {
                OFFSET 8.27202 -0.0477905 -0.4584
                CHANNELS 3 Zrotation Xrotation Yrotation
                JOINT lPinky2
                {
                  OFFSET 1.82734 -0.647385 -0.700984
                  CHANNELS 3 Zrotation Xrotation Yrotation
                  End Site
                  {
                    OFFSET 1.69225 -0.51767 -0.607171
                  }
                }
              }
            }
          }
        }
      }
    }
  }
  JOINT rButtock
  {
    OFFSET -8.77824 4.35084 1.2192
    CHANNELS 3 Zrotation Xrotation Yrotation
    JOINT rThigh
    {
      OFFSET 0 -1.70687 -2.19456
      CHANNELS 3 Zrotation Xrotation Yrotation
      JOINT rShin
      {
        OFFSET 0 -36.8199 0.73152
        CHANNELS 3 Zrotation Xrotation Yrotation
        JOINT rFoot
        {
          OFFSET 0.73152 -45.1104 -5.12064
          CHANNELS 3 Zrotation Xrotation Yrotation
          End Site
          {
            OFFSET -1.1221 -3.69964 12.103
          }
        }
      }
    }
  }
  JOINT lButtock
  {
    OFFSET 8.77824 4.35084 1.2192
    CHANNELS 3 Zrotation Xrotation Yrotation
    JOINT lThigh
    {
      OFFSET 0 -1.70687 -2.19456
      CHANNELS 3 Zrotation Xrotation Yrotation
      JOINT lShin
      {
        OFFSET 0 -36.8199 0.73152
        CHANNELS 3 Zrotation Xrotation Yrotation
        JOINT lFoot
        {
          OFFSET -0.73152 -45.1104 -5.12064
          CHANNELS 3 Zrotation Xrotation Yrotation
          End Site
          {
            OFFSET 1.1221 -3.69964 12.103
          }
        }
      }
    }
  }
}
MOTION
Frames:	4
Frame Time:	0.00833333
49.5821 79.4194 79.7646 10.9724 -36.2229 176.955 0.0107781 1.0461 -10.4641 -1.60062 3.20687 -2.67252 3.21368 12.1705 -5.75899 -2.84358 -23.986 -12.1744 -0 0 0 -0 0 0 5.57073e-014 4.82732e-015 5.58437e-014 41.8129 19.5302 14.9744 -21.5297 -15.0668 42.537 -0.0922729 -8.62423 -1.22142 -1.25785e-009 1.43873e-009 2.26299e-010 -2.17625e-009 2.49548e-009 3.84816e-010 -1.25785e-009 1.43873e-009 2.26299e-010 7.73091 5.47488 0.417314 -1.25785e-009 1.43872e-009 2.26303e-010 2.90554 0.965183 0.102902 -1.25784e-009 1.43873e-009 2.26301e-010 10.2786 0.731801 0.0259123 -1.25785e-009 1.43873e-009 2.26315e-010 2.22167 -0.733487 -0.20892 5.57016e-014 4.81419e-015 5.56337e-014 -26.6909 31.7749 -37.6868 24.5572 -20.1767 -51.4223 0.2298 -13.5213 1.93679 7.72402e-010 -2.14894e-009 -1.23051e-009 1.34952e-009 -3.69207e-009 -2.12294e-009 7.72401e-010 -2.14893e-009 -1.23051e-009 -7.73091 5.47488 -0.417314 7.72402e-010 -2.14893e-009 -1.23051e-009 -2.90554 0.965183 -0.102902 7.72397e-010 -2.14894e-009 -1.23052e-009 -10.2786 0.731801 -0.0259123 7.72412e-010 -2.14894e-009 -1.23053e-009 -2.22167 -0.733487 0.20892 -2.03217e-016 0 -3.88251e-019 -119.557 -66.3467 -101.158 -1.37284 64.8925 2.12669 -4.13265 -11.2904 -13.3497 2.03217e-016 0 3.88251e-019 17.1161 -25.9918 -9.59876 0.00169742 31.1297 -1.73548 -8.59961 18.2544 28.5765 
50.103 79.9277 79.3531 10.9931 -36.1634 177.268 0.00619129 1.06752 -9.95914 -1.38405 3.32138 -2.54004 3.25552 12.1081 -5.74543 -2.93005 -23.6968 -12.1509 -0 0 0 -0 0 0 2.42521e-013 1.20866e-013 6.6891e-014 41.7088 19.0685 15.2102 -21.5766 -15.1343 42.6603 -0.0919046 -8.61518 -1.22008 -4.64472e-009 5.45932e-009 2.51018e-009 -8.05297e-009 9.47572e-009 4.31649e-009 -4.64473e-009 5.45932e-009 2.51018e-009 7.73091 5.47488 0.417314 -4.64473e-009 5.45932e-009 2.51019e-009 2.90554 0.965183 0.102902 -4.64472e-009 5.45932e-009 2.51018e-009 10.2786 0.731801 0.0259123 -4.64473e-009 5.45932e-009 2.5102e-009 2.22167 -0.733487 -0.20892 2.42529e-013 1.20857e-013 6.66426e-014 -27.163 31.7497 -37.5739 24.5937 -20.25 -51.546 0.224298 -13.3675 1.91387 2.72696e-009 -4.81365e-009 -3.1377e-009 4.74939e-009 -8.24314e-009 -5.40086e-009 2.72695e-009 -4.81365e-009 -3.1377e-009 -7.73091 5.47488 -0.417314 2.72696e-009 -4.81363e-009 -3.1377e-009 -2.90554 0.965183 -0.102902 2.72695e-009 -4.81365e-009 -3.13771e-009 -10.2786 0.731801 -0.0259123 2.72697e-009 -4.81365e-009 -3.13772e-009 -2.22167 -0.733487 0.20892 -2.03217e-016 0 -3.88251e-019 -117.788 -67.2178 -99.8849 -1.3303 64.3254 2.0515 -3.98208 -11.5414 -12.9068 2.03217e-016 0 3.88251e-019 16.8441 -27.2723 -8.92798 0.0505851 34.3955 -1.76218 -7.96022 17.185 28.7499 
50.6169 80.4311 78.9484 10.8924 -36.1425 177.526 0.115815 0.971571 -9.59087 -1.1374 3.48555 -2.44528 3.20967 12.0685 -5.67315 -2.96948 -23.5307 -12.002 -0 0 0 -0 0 0 2.32258e-013 1.04486e-013 1.45117e-013 41.5554 18.7594 15.5925 -21.6144 -15.1888 42.7606 -0.0974685 -8.89296 -1.25997 -2.63364e-009 2.80558e-009 8.54717e-010 -4.55893e-009 4.86068e-009 1.46641e-009 -2.63364e-009 2.80558e-009 8.54719e-010 7.73091 5.47488 0.417314 -2.63365e-009 2.80558e-009 8.54722e-010 2.90554 0.965183 0.102902 -2.63364e-009 2.80558e-009 8.5472e-010 10.2786 0.731801 0.0259123 -2.63365e-009 2.80558e-009 8.54734e-010 2.22167 -0.733487 -0.20892 2.32267e-013 1.04487e-013 1.44847e-013 -27.7773 31.7358 -37.2804 24.6138 -20.2905 -51.6151 0.217586 -13.1737 1.88508 7.31101e-010 -2.52965e-009 -1.36744e-009 1.28102e-009 -4.34309e-009 -2.35701e-009 7.31098e-010 -2.52965e-009 -1.36744e-009 -7.73091 5.47488 -0.417314 7.31102e-010 -2.52964e-009 -1.36744e-009 -2.90554 0.965183 -0.102902 7.31094e-010 -2.52965e-009 -1.36745e-009 -10.2786 0.731801 -0.0259123 7.31111e-010 -2.52965e-009 -1.36745e-009 -2.22167 -0.733487 0.20892 -2.03217e-016 0 -3.88251e-019 -115.847 -68.0103 -98.6065 -1.28661 63.705 1.96821 -3.81503 -11.7784 -12.4231 2.03217e-016 0 3.88251e-019 16.6738 -28.5847 -8.31375 0.105453 37.6377 -1.79069 -7.49938 16.3465 29.1551 
51.1149 80.9241 78.5561 10.6949 -36.1248 177.765 0.305854 0.810208 -9.30519 -0.859467 3.67909 -2.37382 3.10851 12.0508 -5.55925 -2.97357 -23.4436 -11.7629 -0 0 0 -0 0 0 1.05357e-013 8.54164e-015 2.64216e-013 41.3883 18.5803 16.0715 -21.6435 -15.2308 42.8375 -0.108259 -9.37921 -1.33004 2.66947e-009 -3.92313e-009 -3.19679e-009 4.65007e-009 -6.83406e-009 -5.50838e-009 2.66947e-009 -3.92313e-009 -3.19679e-009 7.73091 5.47488 0.417314 2.66946e-009 -3.92313e-009 -3.19679e-009 2.90554 0.965183 0.102902 2.66947e-009 -3.92313e-009 -3.19679e-009 10.2786 0.731801 0.0259123 2.66946e-009 -3.92313e-009 -3.19677e-009 2.22167 -0.733487 -0.20892 1.05361e-013 8.55441e-015 2.6393e-013 -28.5155 31.7516 -36.8306 24.622 -20.3073 -51.6434 0.209028 -12.9179 1.84719 -3.69902e-009 2.84165e-009 2.68366e-009 -6.41971e-009 4.83054e-009 4.60813e-009 -3.69903e-009 2.84165e-009 2.68366e-009 -7.73091 5.47488 -0.417314 -3.69902e-009 2.84166e-009 2.68366e-009 -2.90554 0.965183 -0.102902 -3.69903e-009 2.84165e-009 2.68365e-009 -10.2786 0.731801 -0.0259123 -3.69901e-009 2.84165e-009 2.68365e-009 -2.22167 -0.733487 0.20892 -2.03217e-016 0 -3.88251e-019 -113.738 -68.7636 -97.2939 -1.24469 63.0497 1.87995 -3.62335 -12.0131 -11.8798 2.03217e-016 0 3.88251e-019 16.5698 -29.9224 -7.74425 0.168317 40.9592 -1.82488 -7.09953 15.5479 29.7718 
